<mxfile host="app.diagrams.net" modified="2024-06-24T02:33:45.551Z" agent="Mozilla/5.0 (Windows NT 10.0; Win64; x64; rv:127.0) Gecko/20100101 Firefox/127.0" etag="2sHtq-8gXDurjn9uldbD" version="24.5.2" type="device">
  <diagram name="Página-1" id="eze9lXOvTuM-wZiiryg9">
    <mxGraphModel dx="1050" dy="538" grid="1" gridSize="10" guides="1" tooltips="1" connect="1" arrows="1" fold="1" page="1" pageScale="1" pageWidth="1169" pageHeight="827" math="0" shadow="0">
      <root>
        <mxCell id="0" />
        <mxCell id="1" parent="0" />
        <mxCell id="0RmnKSW578N2-x6icK7z-1" value="Maquina de estados" style="rounded=0;whiteSpace=wrap;html=1;" vertex="1" parent="1">
          <mxGeometry x="450" y="40" width="520" height="60" as="geometry" />
        </mxCell>
        <mxCell id="0RmnKSW578N2-x6icK7z-27" style="edgeStyle=orthogonalEdgeStyle;rounded=0;orthogonalLoop=1;jettySize=auto;html=1;entryX=0;entryY=0.5;entryDx=0;entryDy=0;" edge="1" parent="1">
          <mxGeometry relative="1" as="geometry">
            <mxPoint x="180" y="670" as="sourcePoint" />
            <mxPoint x="290" y="670" as="targetPoint" />
          </mxGeometry>
        </mxCell>
        <mxCell id="0RmnKSW578N2-x6icK7z-28" value="&lt;div&gt;Se presiona abrir&lt;/div&gt;&lt;div&gt;Puerto&lt;br&gt;&lt;/div&gt;" style="edgeLabel;html=1;align=center;verticalAlign=middle;resizable=0;points=[];" vertex="1" connectable="0" parent="0RmnKSW578N2-x6icK7z-27">
          <mxGeometry x="0.0182" y="1" relative="1" as="geometry">
            <mxPoint y="-19" as="offset" />
          </mxGeometry>
        </mxCell>
        <mxCell id="0RmnKSW578N2-x6icK7z-7" value="&lt;div&gt;Puerto Cerrado&lt;/div&gt;&lt;div&gt;*Boton Abrir puerto/Cerrar puerto activado&lt;/div&gt;&lt;div&gt;*Boton&amp;nbsp;Start/Stop desactivado&lt;/div&gt;*Boton&amp;nbsp;Adquirir/Detener adquisicón desactivado" style="rounded=0;whiteSpace=wrap;html=1;" vertex="1" parent="1">
          <mxGeometry x="60.00000000000003" y="640" width="120" height="160" as="geometry" />
        </mxCell>
        <mxCell id="0RmnKSW578N2-x6icK7z-23" style="edgeStyle=orthogonalEdgeStyle;rounded=0;orthogonalLoop=1;jettySize=auto;html=1;" edge="1" parent="1" source="0RmnKSW578N2-x6icK7z-9" target="0RmnKSW578N2-x6icK7z-12">
          <mxGeometry relative="1" as="geometry">
            <Array as="points">
              <mxPoint x="480" y="670" />
              <mxPoint x="480" y="670" />
            </Array>
          </mxGeometry>
        </mxCell>
        <mxCell id="0RmnKSW578N2-x6icK7z-24" value="Se presiona Start" style="edgeLabel;html=1;align=center;verticalAlign=middle;resizable=0;points=[];" vertex="1" connectable="0" parent="0RmnKSW578N2-x6icK7z-23">
          <mxGeometry x="-0.3129" y="1" relative="1" as="geometry">
            <mxPoint x="20" y="-9" as="offset" />
          </mxGeometry>
        </mxCell>
        <mxCell id="0RmnKSW578N2-x6icK7z-9" value="&lt;div&gt;Puerto Abierto&lt;br&gt;&lt;/div&gt;&lt;div&gt;*Boton&amp;nbsp;Abrir puerto/Cerrar puerto activado&lt;/div&gt;&lt;div&gt;*Boton Start/Stop activado&lt;br&gt;&lt;/div&gt;*Boton&amp;nbsp;Adquirir/Detener adquisición desactivado" style="rounded=0;whiteSpace=wrap;html=1;" vertex="1" parent="1">
          <mxGeometry x="290" y="640" width="120" height="160" as="geometry" />
        </mxCell>
        <mxCell id="0RmnKSW578N2-x6icK7z-16" style="edgeStyle=orthogonalEdgeStyle;rounded=0;orthogonalLoop=1;jettySize=auto;html=1;entryX=0;entryY=0.5;entryDx=0;entryDy=0;" edge="1" parent="1">
          <mxGeometry relative="1" as="geometry">
            <mxPoint x="645" y="670.0000000000001" as="sourcePoint" />
            <mxPoint x="790" y="670.0000000000001" as="targetPoint" />
          </mxGeometry>
        </mxCell>
        <mxCell id="0RmnKSW578N2-x6icK7z-17" value="&lt;div&gt;Se presiona Adquirir&lt;/div&gt;" style="edgeLabel;html=1;align=center;verticalAlign=middle;resizable=0;points=[];" vertex="1" connectable="0" parent="0RmnKSW578N2-x6icK7z-16">
          <mxGeometry x="-0.2282" y="1" relative="1" as="geometry">
            <mxPoint x="9" y="-9" as="offset" />
          </mxGeometry>
        </mxCell>
        <mxCell id="0RmnKSW578N2-x6icK7z-33" style="edgeStyle=orthogonalEdgeStyle;rounded=0;orthogonalLoop=1;jettySize=auto;html=1;exitX=0;exitY=0.75;exitDx=0;exitDy=0;entryX=1;entryY=0.75;entryDx=0;entryDy=0;" edge="1" parent="1" source="0RmnKSW578N2-x6icK7z-12" target="0RmnKSW578N2-x6icK7z-9">
          <mxGeometry relative="1" as="geometry" />
        </mxCell>
        <mxCell id="0RmnKSW578N2-x6icK7z-34" value="Se presiona Stop" style="edgeLabel;html=1;align=center;verticalAlign=middle;resizable=0;points=[];" vertex="1" connectable="0" parent="0RmnKSW578N2-x6icK7z-33">
          <mxGeometry x="0.1304" y="1" relative="1" as="geometry">
            <mxPoint x="10" y="-11" as="offset" />
          </mxGeometry>
        </mxCell>
        <mxCell id="0RmnKSW578N2-x6icK7z-12" value="&lt;div&gt;Puerto Abierto&lt;br&gt;&lt;/div&gt;&lt;div&gt;*Boton&amp;nbsp;Abrir puerto/Cerrar puerto desactivado&lt;br&gt;&lt;/div&gt;&lt;div&gt;*Boton Start/Stop activado&lt;br&gt;&lt;/div&gt;*Boton Adquirir/Detener adquisicón activado" style="rounded=0;whiteSpace=wrap;html=1;" vertex="1" parent="1">
          <mxGeometry x="525" y="640" width="120" height="160" as="geometry" />
        </mxCell>
        <mxCell id="0RmnKSW578N2-x6icK7z-21" style="edgeStyle=orthogonalEdgeStyle;rounded=0;orthogonalLoop=1;jettySize=auto;html=1;" edge="1" parent="1">
          <mxGeometry relative="1" as="geometry">
            <mxPoint x="790" y="760.0000000000001" as="sourcePoint" />
            <mxPoint x="645" y="760.0000000000001" as="targetPoint" />
          </mxGeometry>
        </mxCell>
        <mxCell id="0RmnKSW578N2-x6icK7z-22" value="&lt;div&gt;Se presiona detener&lt;/div&gt;&lt;div&gt;adquisición&lt;br&gt;&lt;/div&gt;" style="edgeLabel;html=1;align=center;verticalAlign=middle;resizable=0;points=[];" vertex="1" connectable="0" parent="0RmnKSW578N2-x6icK7z-21">
          <mxGeometry x="0.1297" y="-1" relative="1" as="geometry">
            <mxPoint x="12" y="-19" as="offset" />
          </mxGeometry>
        </mxCell>
        <mxCell id="0RmnKSW578N2-x6icK7z-15" value="&lt;div&gt;Puerto Abierto&lt;br&gt;&lt;/div&gt;&lt;div&gt;*Boton&amp;nbsp;Abrir puerto/Cerrar puerto desactivado&lt;br&gt;&lt;/div&gt;&lt;div&gt;*Boton Start/Stop desactivado&lt;br&gt;&lt;/div&gt;*Boton Adquirir/Detener adquisicón activado" style="rounded=0;whiteSpace=wrap;html=1;" vertex="1" parent="1">
          <mxGeometry x="790" y="640" width="120" height="160" as="geometry" />
        </mxCell>
        <mxCell id="0RmnKSW578N2-x6icK7z-31" style="edgeStyle=orthogonalEdgeStyle;rounded=0;orthogonalLoop=1;jettySize=auto;html=1;entryX=1;entryY=0.75;entryDx=0;entryDy=0;" edge="1" parent="1" source="0RmnKSW578N2-x6icK7z-9" target="0RmnKSW578N2-x6icK7z-7">
          <mxGeometry relative="1" as="geometry">
            <Array as="points">
              <mxPoint x="210" y="760" />
              <mxPoint x="210" y="760" />
            </Array>
          </mxGeometry>
        </mxCell>
        <mxCell id="0RmnKSW578N2-x6icK7z-32" value="&lt;div&gt;Se presiona cerrar&lt;/div&gt;&lt;div&gt;Puerto&lt;br&gt;&lt;/div&gt;" style="edgeLabel;html=1;align=center;verticalAlign=middle;resizable=0;points=[];" vertex="1" connectable="0" parent="0RmnKSW578N2-x6icK7z-31">
          <mxGeometry x="0.2218" y="1" relative="1" as="geometry">
            <mxPoint x="7" y="-21" as="offset" />
          </mxGeometry>
        </mxCell>
      </root>
    </mxGraphModel>
  </diagram>
</mxfile>
